<?xml version="1.0" encoding="utf-8"?>
<!-- Generator: Adobe Illustrator 17.1.0, SVG Export Plug-In . SVG Version: 6.00 Build 0)  -->
<!DOCTYPE svg PUBLIC "-//W3C//DTD SVG 1.1//EN" "http://www.w3.org/Graphics/SVG/1.1/DTD/svg11.dtd">
<svg version="1.1" id="Слой_1" xmlns="http://www.w3.org/2000/svg" xmlns:xlink="http://www.w3.org/1999/xlink" x="0px" y="0px"
	 viewBox="0 0 224.3 30.1" enable-background="new 0 0 224.3 30.1" xml:space="preserve">
<g id="Слой_x0020_1">
	<g id="_433214121264">
		<path d="M10.5,18.9c-0.1,0-0.1,0-0.2,0c-4.3,0-7.8-3.5-7.8-7.8c0-4.3,3.5-7.8,7.8-7.8c0.1,0,0.1,0,0.2,0V1c-0.1,0-0.1,0-0.2,0
			C4.8,1,0.3,5.5,0.3,11c0,5.6,4.5,10.1,10.1,10.1c0.1,0,0.1,0,0.2,0V18.9z"/>
		<path d="M10.3,7.7c0.1,0,0.1,0,0.2,0V5.5c-0.1,0-0.1,0-0.2,0c-3.1,0-5.6,2.5-5.6,5.6s2.5,5.6,5.6,5.6c0.1,0,0.3,0,0.4,0
			c1.9,0,3.4,1.5,3.4,3.4c0,1.9-1.5,3.4-3.4,3.4c-0.1,0-0.1,0-0.2,0v2.3c0.1,0,0.1,0,0.2,0c3.1,0,5.6-2.5,5.6-5.6
			c0-3.1-2.5-5.6-5.6-5.6c-0.1,0-0.3,0-0.4,0C8.5,14.4,7,12.9,7,11S8.5,7.7,10.3,7.7z"/>
		<path d="M10.7,9.9c-0.1,0-0.1,0-0.2,0v2.3c0.1,0,0.1,0,0.2,0c4.3,0,7.9,3.5,7.9,7.8c0,4.3-3.5,7.8-7.9,7.8c-0.1,0-0.1,0-0.2,0v2.2
			h0.1l0,0l0,0l0,0l0,0l0,0l0,0h0.1c5.5,0,10-4.5,10-10.1C20.8,14.4,16.3,9.9,10.7,9.9z"/>
		<path d="M26.8,8.3c0,3.9,1.5,5.1,4.6,5.1c0.9,0,2.1-0.1,2.8-0.3l-0.5-2c-0.5,0.1-1.3,0.2-1.9,0.2c-2,0-2.7-0.4-2.7-3
			c0-2.7,0.7-3,2.7-3c0.6,0,1.4,0.1,1.9,0.3l0.5-2c-0.8-0.2-1.9-0.3-2.8-0.3C28.2,3.3,26.8,4.3,26.8,8.3z M42.1,13.2h2.5
			c-1-2.5-2.5-6.6-3.4-9.7h-3.5c-1.1,2.7-2.6,7-3.4,9.7h2.4c0.2-0.6,0.4-1.3,0.6-2.1h4C41.6,11.9,41.9,12.6,42.1,13.2z M39.5,5.5
			c0.3,1.1,0.7,2.4,1.2,3.7h-2.8c0.5-1.3,0.9-2.6,1.3-3.7H39.5z M51.1,9.2c-0.7-1.8-1.7-4-2.5-5.6h-3v9.7h2.2V6.7
			c0.7,1.6,1.6,4.1,2.3,5.7h1.8c0.7-1.6,1.7-4.1,2.4-5.7v6.5h2.2V3.6h-2.8C52.8,5.1,51.8,7.4,51.1,9.2z M65.4,13.2h2.5
			c-1-2.5-2.5-6.6-3.4-9.7h-3.5c-1.1,2.7-2.6,7-3.4,9.7H60c0.2-0.6,0.4-1.3,0.6-2.1h4C64.9,11.9,65.2,12.6,65.4,13.2z M62.8,5.5
			c0.3,1.1,0.7,2.4,1.2,3.7h-2.8c0.5-1.3,0.9-2.6,1.3-3.7H62.8z M71.2,8.4V5.5h2.4c0.6,0,0.9,0.4,0.9,1.5c0,1-0.4,1.4-1,1.4H71.2z
			 M71.2,13.2v-3h3.2c1.8,0,2.6-1.5,2.6-3.3c0-2-0.7-3.4-2.6-3.4H69v9.7L71.2,13.2L71.2,13.2z M78.4,8.3c0,3.9,1.5,5.1,4.6,5.1
			c0.9,0,2.1-0.1,2.8-0.3l-0.4-2c-0.4,0.1-1.3,0.2-1.9,0.2c-1.9,0-2.7-0.4-2.7-3c0-2.7,0.7-3,2.7-3c0.6,0,1.4,0.1,1.9,0.3l0.4-2
			c-0.8-0.2-1.9-0.3-2.8-0.3C79.8,3.3,78.4,4.3,78.4,8.3z M95.9,13.2c-1.4-4.2-2.4-4.9-3.4-5.3C92.9,7.5,94,6,95.7,3.6H93
			c-1.2,2-2.6,3.8-3.4,4.6V3.6h-2.3v9.7h2.3V8.7c1.5,0.1,2.4,1,3.7,4.5H95.9z M106,3.6h-2.7c-1.2,2.2-2.5,4.4-3.8,6.6V3.6h-2.2v9.7
			h2.9c1.2-2,2.5-4.2,3.6-6.4v6.4h2.2V3.6z M117.4,3.6h-2.7c-1.2,2.2-2.5,4.4-3.8,6.6V3.6h-2.2v9.7h2.9c1.2-2,2.5-4.2,3.6-6.4v6.4
			h2.2V3.6z M110.8,1.1c0,1.4,0.8,2,2.2,2c1.4,0,2.2-0.6,2.2-2h-1.3c0,0.6-0.3,0.7-0.8,0.7c-0.6,0-0.8-0.1-0.8-0.7
			C112.2,1.1,110.8,1.1,110.8,1.1z M125.8,13.2h-1.2c0.5-0.7,1.1-1.6,1.6-2.4c-0.6-1.8-2.2-5.4-3.4-7.3h1.1c0.9,1.7,2.1,4.2,2.9,6.2
			c1-2.1,2.2-4.5,2.8-6.2h1.1C129.3,6.8,127.4,10.7,125.8,13.2z M133.3,8.5h5.1v4.7h1V3.6h-1v4h-5.1v-4h-1v9.7h1V8.5z M143.6,12.2
			c1.9-2.9,3.6-5.8,5.1-8.6h1.2v9.7h-1V5c-1.5,2.8-3.3,5.7-5,8.2h-1.4V3.6h1L143.6,12.2L143.6,12.2z M158,12.4h-3.8V8.4h3.7
			c1,0,1.4,0.9,1.4,2S159,12.4,158,12.4z M157.8,7.6h-3.6V4.4h3.6c1,0,1.3,0.6,1.3,1.6C159.1,6.8,158.8,7.6,157.8,7.6L157.8,7.6z
			 M158.2,8c1.7-0.2,1.9-1.1,1.9-2.2c0-1.2-0.4-2.3-2.3-2.3h-4.6v9.7h4.8c1.6,0,2.4-0.9,2.4-2.7C160.4,9.2,160,8.1,158.2,8L158.2,8z
			 M169.7,3.6v0.8h-5.6v3.2h4v0.8h-4v3.9h5.6v0.8h-6.6V3.6L169.7,3.6L169.7,3.6z M173,8.8V4.4h3.4c1.1,0,1.6,0.8,1.6,2.3
			c0,1.2-0.5,2.1-1.6,2.1C176.3,8.8,173,8.8,173,8.8z M173,13.2V9.7h3.4c2,0,2.7-1.5,2.7-3c0-1.6-0.6-3.1-2.8-3.1H172v9.7
			C172,13.2,173,13.2,173,13.2z M180.9,8.3c0,3.9,1.4,5.1,4.4,5.1c0.9,0,2-0.1,2.7-0.4l-0.3-0.9c-0.6,0.2-1.6,0.4-2.4,0.4
			c-2.4,0-3.4-0.7-3.4-4.2c0-3.5,0.9-4.1,3.4-4.1c0.8,0,1.8,0.1,2.4,0.4l0.3-0.9c-0.7-0.2-1.8-0.4-2.7-0.4
			C182.3,3.3,180.9,4.3,180.9,8.3z M191.2,12.2c1.9-2.9,3.6-5.8,5.1-8.6h1.2v9.7h-1V5c-1.5,2.8-3.3,5.7-5,8.2h-1.4V3.6h1L191.2,12.2
			L191.2,12.2z M203.8,4.4h3.4V3.6h-7.7v0.8h3.3v8.8h1V4.4z M215.6,3.6v0.8H210v3.2h4v0.8h-4v3.9h5.6v0.8H209V3.6L215.6,3.6
			L215.6,3.6z M220.9,4.4h3.3V3.6h-7.7v0.8h3.3v8.8h1L220.9,4.4L220.9,4.4z"/>
	</g>
</g>
</svg>
